<!-- Generated by IcoMoon.io -->
<svg version="1.1" xmlns="http://www.w3.org/2000/svg" width="32" height="32" viewBox="0 0 32 32">
<title>project</title>
<path d="M31.544 8.403c-0 0-0 0-0 0l-0.001-0.001-2.066-0.295c-0.29-0.041-0.492-0.31-0.451-0.601 0.020-0.139 0.094-0.265 0.207-0.35l1.669-1.252c0.235-0.176 0.282-0.509 0.106-0.743l-1.912-2.549c-0.176-0.235-0.509-0.282-0.743-0.106l-1.669 1.252c-0.234 0.177-0.567 0.132-0.744-0.102-0.086-0.113-0.123-0.257-0.102-0.398l0.295-2.066c0.042-0.29-0.16-0.559-0.45-0.601-0 0-0-0-0.001-0l-3.152-0.45c-0.29-0.042-0.559 0.16-0.601 0.45 0 0 0 0 0 0l-0.295 2.066c-0.041 0.29-0.31 0.492-0.601 0.451-0.14-0.020-0.265-0.094-0.35-0.207l-1.252-1.669c-0.176-0.235-0.509-0.282-0.743-0.106l-1.596 1.197c-0.722-0.077-1.45-0.077-2.172 0-4.727 0.54-8.435 4.31-8.895 9.046-0.014 0.15-0.020 0.299-0.027 0.449h-0.159c-0.252 0-0.469 0.178-0.519 0.425l-0.367 1.745-1.47-1.014c-0.211-0.146-0.496-0.12-0.677 0.062l-1.593 1.593c-0.181 0.181-0.207 0.466-0.062 0.676l1.009 1.467-1.745 0.367c-0.244 0.053-0.418 0.27-0.417 0.52v2.124c-0 0.251 0.176 0.468 0.422 0.52l1.745 0.367-1.009 1.467c-0.145 0.211-0.119 0.495 0.062 0.676l1.593 1.593c0.181 0.181 0.466 0.207 0.677 0.062l1.467-1.012 0.367 1.745c0.050 0.247 0.267 0.424 0.519 0.425h2.124c0.251 0 0.468-0.176 0.52-0.422l0.367-1.745 1.467 1.009c0.211 0.145 0.495 0.119 0.676-0.062l0.825-0.827v1.513c0.002 0.755 0.407 1.452 1.062 1.829v2.95c0 1.173 0.951 2.124 2.124 2.124h2.124c1.173 0 2.124-0.951 2.124-2.124v-2.95c0.655-0.376 1.060-1.073 1.062-1.829v-2.102c0.014-0.884 0.477-1.701 1.228-2.167 0.441-0.286 0.859-0.605 1.25-0.956l-0.708-0.791c-0.35 0.314-0.724 0.6-1.119 0.855-1.054 0.662-1.7 1.814-1.713 3.059v2.102c0 0.587-0.475 1.062-1.062 1.062h-4.248c-0.587 0-1.062-0.475-1.062-1.062v-2.146c-0.012-1.221-0.648-2.351-1.684-2.997-4.208-2.644-5.476-8.2-2.832-12.408 1.641-2.611 4.504-4.2 7.588-4.211-0.008 0.019-0.015 0.038-0.021 0.058-0.020 0.139 0.017 0.281 0.101 0.393l1.252 1.669c0.132 0.171 0.145 0.405 0.032 0.589-0.109 0.185-0.319 0.286-0.531 0.255l-2.066-0.295c-0.29-0.042-0.559 0.16-0.601 0.45 0 0-0 0-0 0.001l-0.451 3.153c-0.042 0.29 0.16 0.559 0.45 0.601 0 0 0 0 0.001 0l2.065 0.295c0.29 0.041 0.492 0.31 0.451 0.601-0.020 0.139-0.094 0.265-0.207 0.35l-1.669 1.252c-0.235 0.176-0.282 0.509-0.106 0.743l1.912 2.549c0.176 0.235 0.509 0.282 0.743 0.106l1.669-1.252c0.235-0.176 0.568-0.128 0.743 0.107 0.084 0.112 0.12 0.253 0.101 0.392l-0.295 2.066c-0.042 0.29 0.16 0.559 0.45 0.601 0 0 0 0 0 0l3.154 0.451c0.025 0.003 0.050 0.005 0.075 0.005 0.264 0 0.489-0.194 0.526-0.456l0.295-2.066c0.041-0.29 0.31-0.492 0.601-0.451 0.14 0.020 0.265 0.094 0.35 0.207l1.252 1.669c0.176 0.235 0.509 0.282 0.743 0.106l2.549-1.912c0.235-0.176 0.282-0.509 0.106-0.743l-1.252-1.669c-0.131-0.171-0.144-0.405-0.032-0.589 0.106-0.188 0.318-0.289 0.531-0.255l2.066 0.295c0.29 0.042 0.559-0.16 0.601-0.45 0-0 0-0 0-0l0.45-3.154c0.042-0.29-0.16-0.559-0.45-0.601zM13.946 27.216h4.248v1.062h-4.248v-1.062zM13.946 29.34h4.248v0.531c0 0.587-0.475 1.062-1.062 1.062h-2.124c-0.587 0-1.062-0.475-1.062-1.062v-0.531zM9.718 20.184c0.29 0.237 0.593 0.458 0.907 0.661 0.502 0.317 0.879 0.797 1.070 1.359l-1.139 1.137-1.103-0.76c-0.483-0.333-1.144-0.211-1.477 0.272-0.080 0.116-0.136 0.246-0.165 0.384l-0.278 1.326h-1.262l-0.278-1.324c-0.121-0.574-0.684-0.941-1.258-0.82-0.138 0.029-0.268 0.085-0.384 0.165l-1.103 0.758-0.967-0.965 0.76-1.102c0.333-0.483 0.212-1.144-0.271-1.477-0.116-0.080-0.247-0.136-0.384-0.165l-1.324-0.279v-1.262l1.324-0.279c0.574-0.122 0.94-0.685 0.819-1.259-0.029-0.136-0.084-0.265-0.163-0.38l-0.76-1.105 0.967-0.965 1.104 0.76c0.483 0.332 1.144 0.21 1.477-0.273 0.080-0.116 0.136-0.246 0.164-0.383l0.093-0.442c0.085 0.612 0.226 1.214 0.421 1.801-1.747 0.208-2.995 1.794-2.786 3.541s1.793 2.995 3.541 2.786c1.052-0.125 1.972-0.765 2.457-1.707zM8.894 19.436c-0.396 1.102-1.611 1.674-2.713 1.278s-1.674-1.611-1.278-2.713c0.303-0.843 1.104-1.405 2-1.403 0.007 0 0.013 0 0.020 0 0.488 1.053 1.155 2.013 1.971 2.839zM30.565 11.48l-1.54-0.22c-0.871-0.124-1.678 0.481-1.802 1.352-0.060 0.418 0.049 0.843 0.303 1.181l0.933 1.244-1.699 1.274-0.933-1.244c-0.528-0.704-1.526-0.847-2.23-0.319-0.338 0.253-0.561 0.631-0.621 1.049l-0.215 1.542-2.102-0.301 0.22-1.54c0.125-0.871-0.48-1.678-1.351-1.803-0.418-0.060-0.844 0.049-1.182 0.303l-1.244 0.933-1.274-1.699 1.244-0.933c0.704-0.528 0.847-1.526 0.319-2.23-0.253-0.338-0.631-0.561-1.049-0.621l-1.54-0.22 0.301-2.102 1.54 0.22c0.871 0.125 1.678-0.48 1.803-1.351 0.060-0.418-0.049-0.844-0.303-1.182l-0.936-1.245 1.699-1.274 0.933 1.244c0.528 0.704 1.526 0.847 2.23 0.319 0.338-0.253 0.561-0.631 0.621-1.049l0.22-1.54 2.102 0.3-0.22 1.54c-0.124 0.871 0.481 1.678 1.352 1.802 0.418 0.060 0.843-0.049 1.181-0.303l1.244-0.933 1.274 1.699-1.244 0.933c-0.704 0.528-0.847 1.526-0.319 2.23 0.253 0.338 0.631 0.561 1.049 0.621l1.54 0.22-0.302 2.102z"></path>
<path d="M22.832 5.056c-2.346 0-4.248 1.902-4.248 4.248s1.902 4.248 4.248 4.248c2.346 0 4.248-1.902 4.248-4.248-0.003-2.345-1.903-4.245-4.248-4.248zM22.832 12.489c-1.76 0-3.186-1.426-3.186-3.186s1.426-3.186 3.186-3.186c1.76 0 3.186 1.426 3.186 3.186-0.002 1.759-1.427 3.184-3.186 3.186z"></path>
<path d="M15.539 23.5h1.062v1.593h-1.062v-1.593z"></path>
<path d="M13.747 18.285c-3.278-1.28-4.897-4.976-3.616-8.253 0.496-1.27 1.387-2.348 2.541-3.074l-0.568-0.898c-3.474 2.188-4.516 6.778-2.327 10.252 0.848 1.345 2.104 2.383 3.585 2.962 1.311 0.502 2.177 1.761 2.177 3.165h1.062c0.002-1.842-1.133-3.494-2.853-4.153z"></path>
<path d="M26.158 19.783h3.717v1.062h-3.717v-1.062z"></path>
<path d="M25.287 23.376l0.68-0.816 3.186 2.654-0.68 0.816-3.186-2.654z"></path>
<path d="M22.972 24.031h1.062v3.717h-1.062v-3.717z"></path>
<path d="M0.542 9.179l4.248-1.062 0.257 1.030-4.248 1.062-0.257-1.030z"></path>
<path d="M1.424 3.755l0.617-0.864 3.717 2.655-0.617 0.864-3.717-2.655z"></path>
<path d="M5.974 0.267l1.029-0.263 1.086 4.247-1.029 0.263-1.086-4.247z"></path>
</svg>
