<svg aria-hidden="true" style="position: absolute; width: 0; height: 0; overflow: hidden;" version="1.1" xmlns="http://www.w3.org/2000/svg" xmlns:xlink="http://www.w3.org/1999/xlink">
<defs>
<symbol id="icon-gmail" viewBox="0 0 32 32">
<title>gmail</title>
<path fill="#d14836" style="fill: var(--color1, #d14836)" d="M32 6v20c0 1.133-0.867 2-2 2h-2v-18.151l-12 8.617-12-8.617v18.151h-2c-1.135 0-2-0.867-2-2v-20c0-0.567 0.216-1.067 0.575-1.424 0.359-0.363 0.86-0.576 1.425-0.576h0.667l13.333 9.667 13.333-9.667h0.667c0.567 0 1.067 0.216 1.425 0.576 0.36 0.357 0.575 0.857 0.575 1.424z"></path>
</symbol>
<symbol id="icon-code" viewBox="0 0 32 32">
<path d="M12.626 22.425c-0.121 0-0.243-0.042-0.342-0.126l-3.419-2.911c-0.118-0.101-0.186-0.247-0.186-0.402s0.068-0.302 0.186-0.402l3.419-2.911c0.222-0.189 0.555-0.162 0.745 0.060s0.162 0.556-0.060 0.745l-2.946 2.509 2.946 2.509c0.222 0.189 0.249 0.523 0.060 0.745-0.105 0.123-0.253 0.186-0.403 0.186z"></path>
<path d="M19.374 22.425c-0.149 0-0.298-0.063-0.402-0.186-0.189-0.222-0.162-0.555 0.060-0.745l2.946-2.509-2.946-2.509c-0.222-0.189-0.249-0.522-0.060-0.745s0.523-0.249 0.744-0.060l3.419 2.911c0.118 0.101 0.186 0.247 0.186 0.402s-0.068 0.302-0.186 0.402l-3.419 2.911c-0.099 0.085-0.221 0.126-0.342 0.126z"></path>
<path d="M14.79 24.608c-0.036 0-0.073-0.004-0.11-0.012-0.285-0.060-0.468-0.34-0.408-0.626l2.131-10.116c0.060-0.285 0.34-0.468 0.626-0.408s0.468 0.34 0.408 0.626l-2.131 10.116c-0.052 0.249-0.272 0.42-0.516 0.42z"></path>
<path d="M28.453 30.12h-24.906c-1.956 0-3.547-1.591-3.547-3.547v-21.139c0-1.956 1.591-3.547 3.547-3.547h24.906c1.956 0 3.547 1.591 3.547 3.547v21.139c0 1.956-1.591 3.547-3.547 3.547zM3.547 2.943c-1.373 0-2.491 1.117-2.491 2.491v21.139c0 1.373 1.117 2.491 2.491 2.491h24.906c1.373 0 2.491-1.117 2.491-2.491v-21.139c0-1.373-1.117-2.491-2.491-2.491z"></path>
<path d="M31.472 10.346h-30.943c-0.292 0-0.528-0.236-0.528-0.528s0.236-0.528 0.528-0.528h30.943c0.292 0 0.528 0.237 0.528 0.528s-0.236 0.528-0.528 0.528z"></path>
<path d="M9.027 7.818c-0.922 0-1.672-0.75-1.672-1.672s0.75-1.672 1.672-1.672c0.922 0 1.672 0.75 1.672 1.672s-0.75 1.672-1.672 1.672zM9.027 5.531c-0.339 0-0.615 0.276-0.615 0.615s0.276 0.615 0.615 0.615c0.339 0 0.615-0.276 0.615-0.615s-0.276-0.615-0.615-0.615z"></path>
<path d="M3.89 7.802c-0.922 0-1.672-0.75-1.672-1.672s0.75-1.672 1.672-1.672c0.922 0 1.672 0.75 1.672 1.672s-0.75 1.672-1.672 1.672zM3.89 5.515c-0.339 0-0.615 0.276-0.615 0.615s0.276 0.615 0.615 0.615c0.339 0 0.615-0.276 0.615-0.615s-0.276-0.615-0.615-0.615z"></path>
<path d="M14.163 7.834c-0.922 0-1.672-0.75-1.672-1.672s0.75-1.672 1.672-1.672c0.922 0 1.672 0.75 1.672 1.672s-0.75 1.672-1.672 1.672zM14.163 5.547c-0.339 0-0.615 0.276-0.615 0.615s0.276 0.615 0.615 0.615c0.339 0 0.615-0.276 0.615-0.615s-0.276-0.615-0.615-0.615z"></path>
</symbol>
<symbol id="icon-project" viewBox="0 0 32 32">
<path d="M31.544 8.403c-0 0-0 0-0 0l-0.001-0.001-2.066-0.295c-0.29-0.041-0.492-0.31-0.451-0.601 0.020-0.139 0.094-0.265 0.207-0.35l1.669-1.252c0.235-0.176 0.282-0.509 0.106-0.743l-1.912-2.549c-0.176-0.235-0.509-0.282-0.743-0.106l-1.669 1.252c-0.234 0.177-0.567 0.132-0.744-0.102-0.086-0.113-0.123-0.257-0.102-0.398l0.295-2.066c0.042-0.29-0.16-0.559-0.45-0.601-0 0-0-0-0.001-0l-3.152-0.45c-0.29-0.042-0.559 0.16-0.601 0.45 0 0 0 0 0 0l-0.295 2.066c-0.041 0.29-0.31 0.492-0.601 0.451-0.14-0.020-0.265-0.094-0.35-0.207l-1.252-1.669c-0.176-0.235-0.509-0.282-0.743-0.106l-1.596 1.197c-0.722-0.077-1.45-0.077-2.172 0-4.727 0.54-8.435 4.31-8.895 9.046-0.014 0.15-0.020 0.299-0.027 0.449h-0.159c-0.252 0-0.469 0.178-0.519 0.425l-0.367 1.745-1.47-1.014c-0.211-0.146-0.496-0.12-0.677 0.062l-1.593 1.593c-0.181 0.181-0.207 0.466-0.062 0.676l1.009 1.467-1.745 0.367c-0.244 0.053-0.418 0.27-0.417 0.52v2.124c-0 0.251 0.176 0.468 0.422 0.52l1.745 0.367-1.009 1.467c-0.145 0.211-0.119 0.495 0.062 0.676l1.593 1.593c0.181 0.181 0.466 0.207 0.677 0.062l1.467-1.012 0.367 1.745c0.050 0.247 0.267 0.424 0.519 0.425h2.124c0.251 0 0.468-0.176 0.52-0.422l0.367-1.745 1.467 1.009c0.211 0.145 0.495 0.119 0.676-0.062l0.825-0.827v1.513c0.002 0.755 0.407 1.452 1.062 1.829v2.95c0 1.173 0.951 2.124 2.124 2.124h2.124c1.173 0 2.124-0.951 2.124-2.124v-2.95c0.655-0.376 1.060-1.073 1.062-1.829v-2.102c0.014-0.884 0.477-1.701 1.228-2.167 0.441-0.286 0.859-0.605 1.25-0.956l-0.708-0.791c-0.35 0.314-0.724 0.6-1.119 0.855-1.054 0.662-1.7 1.814-1.713 3.059v2.102c0 0.587-0.475 1.062-1.062 1.062h-4.248c-0.587 0-1.062-0.475-1.062-1.062v-2.146c-0.012-1.221-0.648-2.351-1.684-2.997-4.208-2.644-5.476-8.2-2.832-12.408 1.641-2.611 4.504-4.2 7.588-4.211-0.008 0.019-0.015 0.038-0.021 0.058-0.020 0.139 0.017 0.281 0.101 0.393l1.252 1.669c0.132 0.171 0.145 0.405 0.032 0.589-0.109 0.185-0.319 0.286-0.531 0.255l-2.066-0.295c-0.29-0.042-0.559 0.16-0.601 0.45 0 0-0 0-0 0.001l-0.451 3.153c-0.042 0.29 0.16 0.559 0.45 0.601 0 0 0 0 0.001 0l2.065 0.295c0.29 0.041 0.492 0.31 0.451 0.601-0.020 0.139-0.094 0.265-0.207 0.35l-1.669 1.252c-0.235 0.176-0.282 0.509-0.106 0.743l1.912 2.549c0.176 0.235 0.509 0.282 0.743 0.106l1.669-1.252c0.235-0.176 0.568-0.128 0.743 0.107 0.084 0.112 0.12 0.253 0.101 0.392l-0.295 2.066c-0.042 0.29 0.16 0.559 0.45 0.601 0 0 0 0 0 0l3.154 0.451c0.025 0.003 0.050 0.005 0.075 0.005 0.264 0 0.489-0.194 0.526-0.456l0.295-2.066c0.041-0.29 0.31-0.492 0.601-0.451 0.14 0.020 0.265 0.094 0.35 0.207l1.252 1.669c0.176 0.235 0.509 0.282 0.743 0.106l2.549-1.912c0.235-0.176 0.282-0.509 0.106-0.743l-1.252-1.669c-0.131-0.171-0.144-0.405-0.032-0.589 0.106-0.188 0.318-0.289 0.531-0.255l2.066 0.295c0.29 0.042 0.559-0.16 0.601-0.45 0-0 0-0 0-0l0.45-3.154c0.042-0.29-0.16-0.559-0.45-0.601zM13.946 27.216h4.248v1.062h-4.248v-1.062zM13.946 29.34h4.248v0.531c0 0.587-0.475 1.062-1.062 1.062h-2.124c-0.587 0-1.062-0.475-1.062-1.062v-0.531zM9.718 20.184c0.29 0.237 0.593 0.458 0.907 0.661 0.502 0.317 0.879 0.797 1.070 1.359l-1.139 1.137-1.103-0.76c-0.483-0.333-1.144-0.211-1.477 0.272-0.080 0.116-0.136 0.246-0.165 0.384l-0.278 1.326h-1.262l-0.278-1.324c-0.121-0.574-0.684-0.941-1.258-0.82-0.138 0.029-0.268 0.085-0.384 0.165l-1.103 0.758-0.967-0.965 0.76-1.102c0.333-0.483 0.212-1.144-0.271-1.477-0.116-0.080-0.247-0.136-0.384-0.165l-1.324-0.279v-1.262l1.324-0.279c0.574-0.122 0.94-0.685 0.819-1.259-0.029-0.136-0.084-0.265-0.163-0.38l-0.76-1.105 0.967-0.965 1.104 0.76c0.483 0.332 1.144 0.21 1.477-0.273 0.080-0.116 0.136-0.246 0.164-0.383l0.093-0.442c0.085 0.612 0.226 1.214 0.421 1.801-1.747 0.208-2.995 1.794-2.786 3.541s1.793 2.995 3.541 2.786c1.052-0.125 1.972-0.765 2.457-1.707zM8.894 19.436c-0.396 1.102-1.611 1.674-2.713 1.278s-1.674-1.611-1.278-2.713c0.303-0.843 1.104-1.405 2-1.403 0.007 0 0.013 0 0.020 0 0.488 1.053 1.155 2.013 1.971 2.839zM30.565 11.48l-1.54-0.22c-0.871-0.124-1.678 0.481-1.802 1.352-0.060 0.418 0.049 0.843 0.303 1.181l0.933 1.244-1.699 1.274-0.933-1.244c-0.528-0.704-1.526-0.847-2.23-0.319-0.338 0.253-0.561 0.631-0.621 1.049l-0.215 1.542-2.102-0.301 0.22-1.54c0.125-0.871-0.48-1.678-1.351-1.803-0.418-0.060-0.844 0.049-1.182 0.303l-1.244 0.933-1.274-1.699 1.244-0.933c0.704-0.528 0.847-1.526 0.319-2.23-0.253-0.338-0.631-0.561-1.049-0.621l-1.54-0.22 0.301-2.102 1.54 0.22c0.871 0.125 1.678-0.48 1.803-1.351 0.060-0.418-0.049-0.844-0.303-1.182l-0.936-1.245 1.699-1.274 0.933 1.244c0.528 0.704 1.526 0.847 2.23 0.319 0.338-0.253 0.561-0.631 0.621-1.049l0.22-1.54 2.102 0.3-0.22 1.54c-0.124 0.871 0.481 1.678 1.352 1.802 0.418 0.060 0.843-0.049 1.181-0.303l1.244-0.933 1.274 1.699-1.244 0.933c-0.704 0.528-0.847 1.526-0.319 2.23 0.253 0.338 0.631 0.561 1.049 0.621l1.54 0.22-0.302 2.102z"></path>
<path d="M22.832 5.056c-2.346 0-4.248 1.902-4.248 4.248s1.902 4.248 4.248 4.248c2.346 0 4.248-1.902 4.248-4.248-0.003-2.345-1.903-4.245-4.248-4.248zM22.832 12.489c-1.76 0-3.186-1.426-3.186-3.186s1.426-3.186 3.186-3.186c1.76 0 3.186 1.426 3.186 3.186-0.002 1.759-1.427 3.184-3.186 3.186z"></path>
<path d="M15.539 23.5h1.062v1.593h-1.062v-1.593z"></path>
<path d="M13.747 18.285c-3.278-1.28-4.897-4.976-3.616-8.253 0.496-1.27 1.387-2.348 2.541-3.074l-0.568-0.898c-3.474 2.188-4.516 6.778-2.327 10.252 0.848 1.345 2.104 2.383 3.585 2.962 1.311 0.502 2.177 1.761 2.177 3.165h1.062c0.002-1.842-1.133-3.494-2.853-4.153z"></path>
<path d="M26.158 19.783h3.717v1.062h-3.717v-1.062z"></path>
<path d="M25.287 23.376l0.68-0.816 3.186 2.654-0.68 0.816-3.186-2.654z"></path>
<path d="M22.972 24.031h1.062v3.717h-1.062v-3.717z"></path>
<path d="M0.542 9.179l4.248-1.062 0.257 1.030-4.248 1.062-0.257-1.030z"></path>
<path d="M1.424 3.755l0.617-0.864 3.717 2.655-0.617 0.864-3.717-2.655z"></path>
<path d="M5.974 0.267l1.029-0.263 1.086 4.247-1.029 0.263-1.086-4.247z"></path>
</symbol>
<symbol id="icon-profile" viewBox="0 0 32 32">
<path d="M27 0h-24c-1.65 0-3 1.35-3 3v26c0 1.65 1.35 3 3 3h24c1.65 0 3-1.35 3-3v-26c0-1.65-1.35-3-3-3zM26 28h-22v-24h22v24zM8 18h14v2h-14zM8 22h14v2h-14zM10 9c0-1.657 1.343-3 3-3s3 1.343 3 3c0 1.657-1.343 3-3 3s-3-1.343-3-3zM15 12h-4c-1.65 0-3 0.9-3 2v2h10v-2c0-1.1-1.35-2-3-2z"></path>
</symbol>
<symbol id="icon-embed2" viewBox="0 0 40 32">
<path d="M26 23l3 3 10-10-10-10-3 3 7 7z"></path>
<path d="M14 9l-3-3-10 10 10 10 3-3-7-7z"></path>
<path d="M21.916 4.704l2.171 0.592-6 22.001-2.171-0.592 6-22.001z"></path>
</symbol>
<symbol id="icon-terminal" viewBox="0 0 32 32">
<path d="M0 2v28h32v-28h-32zM30 28h-28v-24h28v24zM28 6h-24v20h24v-20zM14 16h-2v2h-2v2h-2v-2h2v-2h2v-2h-2v-2h-2v-2h2v2h2v2h2v2zM22 20h-6v-2h6v2z"></path>
</symbol>
<symbol id="icon-mail2" viewBox="0 0 32 32">
<path d="M26.667 0h-21.333c-2.934 0-5.334 2.4-5.334 5.334v21.332c0 2.936 2.4 5.334 5.334 5.334h21.333c2.934 0 5.333-2.398 5.333-5.334v-21.332c0-2.934-2.399-5.334-5.333-5.334zM26.667 4c0.25 0 0.486 0.073 0.688 0.198l-11.355 9.388-11.355-9.387c0.202-0.125 0.439-0.198 0.689-0.198h21.333zM5.334 28c-0.060 0-0.119-0.005-0.178-0.013l7.051-9.78-0.914-0.914-7.293 7.293v-19.098l12 14.512 12-14.512v19.098l-7.293-7.293-0.914 0.914 7.051 9.78c-0.058 0.008-0.117 0.013-0.177 0.013h-21.333z"></path>
</symbol>
<symbol id="icon-mail4" viewBox="0 0 32 32">
<path d="M16 0c-8.837 0-16 7.163-16 16s7.163 16 16 16 16-7.163 16-16-7.163-16-16-16zM8 8h16c0.286 0 0.563 0.061 0.817 0.177l-8.817 10.286-8.817-10.287c0.254-0.116 0.531-0.177 0.817-0.177zM6 22v-12c0-0.042 0.002-0.084 0.004-0.125l5.864 6.842-5.8 5.8c-0.045-0.167-0.069-0.34-0.069-0.517zM24 24h-16c-0.177 0-0.35-0.024-0.517-0.069l5.691-5.691 2.826 3.297 2.826-3.297 5.691 5.691c-0.167 0.045-0.34 0.069-0.517 0.069zM26 22c0 0.177-0.024 0.35-0.069 0.517l-5.8-5.8 5.865-6.842c0.003 0.041 0.004 0.083 0.004 0.125v12z"></path>
</symbol>
<symbol id="icon-github" viewBox="0 0 32 32">
<path d="M16 0.395c-8.836 0-16 7.163-16 16 0 7.069 4.585 13.067 10.942 15.182 0.8 0.148 1.094-0.347 1.094-0.77 0-0.381-0.015-1.642-0.022-2.979-4.452 0.968-5.391-1.888-5.391-1.888-0.728-1.849-1.776-2.341-1.776-2.341-1.452-0.993 0.11-0.973 0.11-0.973 1.606 0.113 2.452 1.649 2.452 1.649 1.427 2.446 3.743 1.739 4.656 1.33 0.143-1.034 0.558-1.74 1.016-2.14-3.554-0.404-7.29-1.777-7.29-7.907 0-1.747 0.625-3.174 1.649-4.295-0.166-0.403-0.714-2.030 0.155-4.234 0 0 1.344-0.43 4.401 1.64 1.276-0.355 2.645-0.532 4.005-0.539 1.359 0.006 2.729 0.184 4.008 0.539 3.054-2.070 4.395-1.64 4.395-1.64 0.871 2.204 0.323 3.831 0.157 4.234 1.026 1.12 1.647 2.548 1.647 4.295 0 6.145-3.743 7.498-7.306 7.895 0.574 0.497 1.085 1.47 1.085 2.963 0 2.141-0.019 3.864-0.019 4.391 0 0.426 0.288 0.925 1.099 0.768 6.354-2.118 10.933-8.113 10.933-15.18 0-8.837-7.164-16-16-16z"></path>
</symbol>
<symbol id="icon-linkedin" viewBox="0 0 32 32">
<path d="M29 0h-26c-1.65 0-3 1.35-3 3v26c0 1.65 1.35 3 3 3h26c1.65 0 3-1.35 3-3v-26c0-1.65-1.35-3-3-3zM12 26h-4v-14h4v14zM10 10c-1.106 0-2-0.894-2-2s0.894-2 2-2c1.106 0 2 0.894 2 2s-0.894 2-2 2zM26 26h-4v-8c0-1.106-0.894-2-2-2s-2 0.894-2 2v8h-4v-14h4v2.481c0.825-1.131 2.087-2.481 3.5-2.481 2.488 0 4.5 2.238 4.5 5v9z"></path>
</symbol>
<symbol id="icon-linkedin2" viewBox="0 0 32 32">
<path d="M12 12h5.535v2.837h0.079c0.77-1.381 2.655-2.837 5.464-2.837 5.842 0 6.922 3.637 6.922 8.367v9.633h-5.769v-8.54c0-2.037-0.042-4.657-3.001-4.657-3.005 0-3.463 2.218-3.463 4.509v8.688h-5.767v-18z"></path>
<path d="M2 12h6v18h-6v-18z"></path>
<path d="M8 7c0 1.657-1.343 3-3 3s-3-1.343-3-3c0-1.657 1.343-3 3-3s3 1.343 3 3z"></path>
</symbol>
</defs>
</svg>
